<svg width="817" height="800" viewBox="0 0 817 800" fill="none" xmlns="http://www.w3.org/2000/svg">
<g clip-path="url(#clip0_26_2)">
<path d="M408.5 747.826C634.107 747.826 817 701.108 817 643.478C817 585.849 634.107 539.13 408.5 539.13C182.893 539.13 1.38283e-05 585.849 1.38283e-05 643.478C1.38283e-05 701.108 182.893 747.826 408.5 747.826Z" fill="#EAD07D"/>
<path d="M7.20937e-05 643.478H680.982L674.913 607.268L587.123 549.614C533.164 542.901 472.558 539.13 408.5 539.13C182.891 539.13 7.20937e-05 585.849 7.20937e-05 643.478Z" fill="#D2BB71"/>
<path d="M213.294 340.635L670.565 640.927C678.712 646.277 689.745 644.148 695.208 636.171L705.101 621.727C710.564 613.75 708.391 602.946 700.244 597.597L242.972 297.303C234.825 291.953 223.792 294.082 218.329 302.059L208.436 316.503C202.973 324.48 205.149 335.284 213.294 340.635Z" fill="#8A7352"/>
<path d="M113.925 641.835L489.848 92.9721C359.503 7.37389 169.684 60.8487 65.8751 212.414C-37.9336 363.979 -16.4198 556.235 113.925 641.835Z" fill="#FFA757"/>
<path d="M301.887 367.403L65.8768 212.414C-37.932 363.977 -16.42 556.236 113.925 641.835L301.887 367.403Z" fill="#D97948"/>
<path d="M222.746 482.953L381.029 251.854C250.684 166.256 109.585 148.596 65.8769 212.414C22.1692 276.231 92.401 397.355 222.746 482.953Z" fill="#F49445"/>
</g>
<defs>
<clipPath id="clip0_26_2">
<rect width="817" height="800" fill="white" transform="matrix(-1 0 0 1 817 0)"/>
</clipPath>
</defs>
</svg>
